<svg width="60" height="60" viewBox="0 0 60 60" fill="none" xmlns="http://www.w3.org/2000/svg">
<path fill-rule="evenodd" clip-rule="evenodd" d="M21.5667 9.26178L21.0021 9.94228C20.3226 9.68001 17.4816 8.92025 16.7784 8.87045C15.857 8.8052 15.4661 9.63838 16.1576 10.1591C16.5718 10.471 17.5097 10.8583 17.6308 11.3166C17.2896 11.3149 15.8387 10.8705 15.2597 10.7811C12.7946 10.4007 10.5417 11.3784 8.50582 12.6156C7.34232 13.3228 5.97761 14.0718 4.69104 14.5351C2.91969 15.1733 1.5137 15.2107 0 15.5893C5.78658 16.1891 9.45985 12.3479 13.9599 12.0985C16.3258 11.9673 18.5514 13.1649 20.4059 14.4354C20.6916 14.6309 21.4095 15.204 21.6773 15.3114C22.2721 15.5501 22.89 14.9799 22.6506 14.3906C22.4017 13.7774 20.8521 12.4211 20.7654 11.9382C21.6424 12.0727 23.3694 14.5588 24.5484 13.9095C25.7567 13.2443 24.2879 10.5141 23.7161 9.68837C22.6294 8.11888 21.4252 7.66012 19.4661 7.71447C18.1607 7.75046 17.4377 8.36498 19.123 8.57873C19.7476 8.65798 21.1856 8.7554 21.5667 9.26178ZM23.0442 48.6363L23.5451 48.7733L23.691 49.472C23.311 49.2381 23.2239 48.9336 23.0442 48.6363ZM53.4846 14.8696C53.3682 13.6485 54.3265 12.1777 52.5657 9.32976C51.5811 7.73701 50.0673 6.8104 49.4302 5.31144C48.7269 3.65726 47.4501 2.57089 45.722 1.90747C44.7584 1.53759 39.9748 0.598084 39.427 1.18789C39.5743 1.51505 41.2876 1.59939 41.7513 1.67191C42.5408 1.79514 43.3186 1.95127 44.0654 2.17211C44.8321 2.3984 47.4611 3.47078 47.5653 4.33576L45.5586 3.32355C46.5226 4.21362 47.4066 5.03499 48.3468 5.87435C49.0228 6.47815 49.254 9.50861 48.7575 10.2544C47.6919 10.005 46.3005 8.2452 45.5106 7.48418C45.0452 7.03597 44.5274 6.01721 43.9883 6.05084C42.7052 6.13045 43.6317 7.53853 43.3804 7.87623C43.0866 7.84933 42.3185 6.76914 42.0981 6.49233C41.077 5.21166 41.6052 5.73839 40.3448 5.84345C39.1905 5.33961 37.4865 1.39709 36.1427 2.13685L35.8776 2.87824C35.497 2.77955 33.8334 0.820556 30.6958 0.160955C29.1208 -0.170028 25.0601 -0.0246208 23.8974 0.917615C24.8107 1.00177 28.4197 -0.957768 32.7407 1.68264C34.2978 2.63432 37.3993 6.12317 37.1369 7.84497C36.1949 7.90077 33.6239 7.26153 32.721 7.6903C32.9485 7.8168 35.2382 8.0071 35.7654 8.10543C39.9896 8.89408 44.6877 11.0143 48.3738 13.0685C49.4811 13.6854 51.7751 15.5683 52.5173 15.8798C52.5749 16.021 54.2618 17.4047 54.5367 17.6016C55.3228 18.1638 57.5461 20.5882 58.1215 21.4307C58.4028 21.8422 59.351 23.5805 59.7064 23.6385C60.5011 22.8226 59.4975 20.2523 58.8795 19.4021C57.5528 17.5781 54.7623 9.76543 52.721 8.7803C53.2018 9.82796 54.262 11.0815 54.8487 12.3884C55.1235 13.0007 56.4214 16.1995 56.2117 16.5492L53.4846 14.8696ZM7.5276 19.2821C8.51158 18.5289 10.1835 18.0462 11.4378 18.0233C12.4248 18.0053 14.7745 18.7054 15.0139 19.5718L7.5276 19.2821ZM46.1834 42.78C49.0654 39.5509 52.1863 36.924 53.7722 32.8135C57.2379 23.8315 49.6786 34.1538 48.4597 35.8516C44.0827 41.9481 39.3162 52.0159 37.8893 59.4024C37.8507 59.6034 37.8135 59.803 37.7797 60C37.8027 59.8222 37.8402 59.6216 37.8893 59.4024C38.3566 57.3223 39.9009 53.5697 40.6068 51.839C42.5059 47.1846 45.5753 41.8425 48.6054 37.754C49.1603 37.0056 53.3141 31.9305 53.6614 31.8075C53.7369 32.944 51.1781 36.7182 50.4027 37.7664C49.6226 38.8211 46.5092 42.1179 46.1834 42.78ZM26.732 4.4888C26.7677 4.51225 31.2105 5.12296 31.9637 5.33471C32.7544 5.55718 33.4682 5.80673 34.2274 6.11009C34.5904 6.25531 36.0909 7.07032 36.3005 7.05014C36.5743 5.91034 33.8391 3.3141 32.8216 3.91408C32.0398 4.3752 32.6962 4.30105 31.5193 4.14401C30.5224 4.01096 27.0623 3.91172 26.732 4.4888ZM15.4386 16.0612C14.8932 15.9776 14.0136 16.0092 14.25 15.3254L17.2593 15.5772L17.147 16.2742C16.7816 16.3229 15.8639 16.1266 15.4386 16.0612ZM4.82103 23.657C5.16739 22.7126 4.90224 22.3088 5.60821 21.163C5.9154 20.6635 6.78188 19.6046 7.29528 19.4452C8.11914 19.1894 12.147 20.4639 12.5765 20.9249L11.1607 21.3662C11.4871 22.3735 15.318 21.7951 16.028 21.9578C16.1999 22.8108 15.7251 25.0242 15.1556 25.672C14.3759 26.5583 15.6976 27.8811 16.2435 28.6625C17.8823 31.0083 17.8447 33.3559 18.2915 35.923C18.4929 35.1453 18.0626 30.5862 17.8791 29.4922C17.7345 28.6309 17.3822 27.7195 16.879 26.9878C16.4122 26.3093 15.5822 25.4192 15.7633 24.7392C15.8856 24.2799 16.259 22.0596 16.4193 21.8785C16.7682 21.4839 17.6214 21.5557 18.4965 20.3072C19.6418 18.673 18.8391 19.5835 20.399 18.5796C21.3746 17.952 21.9722 17.6439 21.4823 16.4047C21.147 15.5566 20.7511 14.7416 19.7163 14.7607C16.2164 14.8252 15.5517 12.6558 10.7397 15.2696C9.28513 16.0597 7.83652 17.3215 6.95295 18.6756C5.74587 20.5253 4.62173 21.2393 4.82103 23.657ZM26.2165 47.8876L26.7345 47.573C27.0995 47.8791 27.2166 48.2026 27.1769 48.6472L26.5796 48.8635C26.4531 48.6926 26.2086 48.0781 26.2165 47.8876ZM26.157 42.8157C25.8506 42.0474 25.4193 39.2503 25.2815 38.3066C25.1114 37.1426 24.8967 34.8521 25.9936 33.9969C26.657 33.715 28.6712 35.3539 29.4605 35.658C30.2379 35.9577 30.4642 35.676 30.9402 35.7794C30.9289 36.232 29.5978 37.0203 29.1326 37.0352C28.2983 37.0619 27.3958 37.0759 26.7618 37.7339C26.2486 38.2664 26.6456 38.4107 26.7209 38.8235C26.7727 39.1071 26.6149 39.8239 26.5617 40.1511C26.5047 40.5037 26.2127 42.7141 26.157 42.8157ZM43.8773 32.7295C43.4996 32.0016 44.8839 29.5437 45.3881 28.8715C45.8572 28.2463 47.5529 26.2346 48.1851 26.0733C48.1955 26.9401 44.6626 32.1144 43.8773 32.7295ZM41.0325 20.6326C39.7609 20.2425 36.3512 17.9913 36.5885 16.6802C39.1525 16.4067 42.5719 19.5389 46.5478 20.4783C47.1328 20.6164 50.4459 20.9963 50.5624 21.0852L50.6158 21.1764C46.3794 23.4093 48.1893 22.8947 46.1187 22.0381C44.6088 21.4138 42.6627 21.133 41.0325 20.6326ZM44.974 19.5884C43.3119 18.974 37.5055 15.9529 36.1097 16.4581C35.4479 17.9069 40.09 21.5986 41.1661 22.5792C42.1866 23.5091 43.3284 24.3712 43.6822 25.7298C44.0011 26.9554 43.7807 26.8969 43.3339 27.9267C43.189 28.261 42.7608 29.7423 42.5279 29.8339C42.4982 29.8116 40.8841 25.7742 40.3561 25.0344C39.4449 23.7586 38.2664 22.2706 37 21.3011C34.5747 19.4448 33.4333 18.3953 30.3619 17.2164C29.9138 17.0443 27.6142 16.4854 27.5488 16.4383C27.5532 16.3676 28.3943 15.0215 28.5257 14.68C28.7879 13.9979 28.9976 13.2263 29.1614 12.516C29.4568 11.2331 29.0579 11.3742 30.0983 10.6344C30.7131 10.1969 30.4884 9.02858 30.3252 8.41987C29.9458 7.00634 28.9861 6.02339 27.5442 5.52319C26.5865 5.19094 23.3671 5.14259 22.8303 5.84236C23.1547 6.06647 25.5286 5.71967 26.914 6.4278C27.6523 6.80495 27.9099 7.45183 26.7917 7.08104C25.7179 6.7248 26.0671 7.70247 25.1377 7.20009C23.9583 6.56212 22.4553 6.61338 21.1405 6.51559C20.7936 6.4896 17.3421 6.69117 17.1497 6.76242C18.5712 7.13902 21.0459 6.65482 23.7603 8.034C26.853 9.60494 25.8997 11.7926 26.7278 12.7748L27.4898 12.8671C27.1634 14.391 26.3548 14.8223 25.0018 15.4834C24.1829 15.8831 22.2789 17.2811 22.9555 18.299C23.2296 18.1005 23.7628 16.7139 24.7938 16.9534C24.92 17.7472 24.4429 19.3488 25.3748 20.1304L26.0464 19.4432C27.0482 19.8041 27.341 20.0233 28.5521 20.3109C29.1473 20.4521 30.7232 20.9957 31.1178 21.0372C30.6376 20.7945 28.2359 18.972 28.5558 18.3159C29.2618 17.9869 31.8595 19.969 32.3809 20.5308C32.9617 21.1564 34.6173 23.4702 34.7271 24.1856L32.8792 21.9581C33.1904 22.7461 34.3535 24.16 34.8304 25.2758C35.2496 26.2564 35.9571 28.7674 35.4306 29.6705L34.7698 29.2619C34.1262 30.194 34.5372 31.1431 33.7168 32.1046C33.363 32.519 31.7401 33.7085 31.1986 33.5004L32.9059 29.3165C32.3074 30.24 31.607 31.8236 30.5835 32.3649C29.8512 32.7522 28.9797 32.5752 28.1977 32.478C26.9976 32.3287 26.5178 32.9854 26.0806 32.9331C25.7348 32.4551 25.7542 30.8254 25.9195 30.2567C26.281 29.0106 25.4272 28.5231 26.0454 28.1021L26.2555 28.6509C26.5853 27.8586 26.9874 26.4728 26.3409 25.7431C25.9239 25.9596 25.3884 26.4574 24.9079 26.132C24.9875 25.7082 26.0735 25.3854 26.2273 23.8692C26.3484 22.6774 25.8463 22.1457 25.4274 21.2653C25.5845 23.3215 26.5515 23.6776 24.3434 24.9208C23.7545 25.2523 21.6618 27.1693 21.9951 27.8302C22.505 28.0058 23.2747 26.8703 24.3793 27.8022C24.4035 28.1739 23.8465 28.8015 23.7411 29.195C23.5144 30.0424 24.4185 29.8755 24.7894 30.1678C25.2064 32.0078 24.5623 35.2247 24.9555 37.3913C25.2093 38.7908 25.3406 39.1934 25.2297 40.6556C25.1926 41.1429 24.6963 43.6843 24.7093 43.765C25.2283 44.2499 25.1298 43.5883 25.5155 44.5376C25.6964 44.9829 25.9733 44.974 26.1249 45.4344C24.9714 46.2516 25.5301 44.727 23.9488 45.0502C23.5856 45.1245 23.0958 45.3506 22.8312 45.6093C22.6392 45.7969 22.6348 45.9415 22.4067 46.0586C22.0782 46.2269 22.1312 45.9819 21.8323 46.2763C21.0879 47.2482 22.9347 48.8577 23.4318 49.5422C22.6348 49.5976 21.2242 49.4622 20.5709 49.0651C20.3518 48.9316 18.9335 47.6731 18.8631 47.5306C19.4043 48.5808 20.7753 49.2386 21.3314 50.1083C22.0711 51.2661 24.1339 51.1695 25.3562 50.991C27.5374 50.6723 27.3387 50.0907 28.7272 49.1965C29.4536 48.7288 29.5139 48.5174 29.842 47.7918C30.1438 47.1237 30.9187 47.4481 30.437 46.1756C30.053 45.1616 28.6938 43.7099 29.5288 42.6572C30.2751 41.7162 31.497 37.3805 33.0675 36.1775C34.4977 35.0817 34.7141 33.8686 35.2672 33.3575C35.8071 33.4291 37.6178 36.3827 37.8912 36.969C40.2105 41.9465 38.7913 48.4676 38.3238 53.4034C39.0997 51.9925 39.9097 45.7003 40.0942 43.7641C40.5175 39.3239 40.6468 38.9146 43.1082 35.1623C44.6412 32.8253 46.4815 30.6447 47.9419 28.2946C49.6082 25.6135 48.9491 24.7258 49.479 24.1502C49.9526 23.6363 50.4835 23.1665 51.1372 22.8702C53.0073 22.0218 51.7804 22.2948 52.2869 21.2846C52.8612 20.8809 53.5243 21.2822 54.1558 20.7395C54.44 20.4952 55.1062 19.8458 54.9793 19.516C54.9436 19.5188 53.1194 20.2198 52.817 20.3145C51.4805 20.7327 51.4997 20.6157 50.1335 20.5477C48.5749 20.4699 46.427 20.1257 44.974 19.5884Z" fill="url(#paint0_linear_23628_116)"/>
<defs>
<linearGradient id="paint0_linear_23628_116" x1="28.5" y1="-18" x2="33" y2="24.75" gradientUnits="userSpaceOnUse">
<stop offset="0.397371" stop-color="#CCAF17"/>
<stop offset="1" stop-color="#C5CACA"/>
</linearGradient>
</defs>
</svg>
